<svg id="Layer_1" data-name="Layer 1" xmlns="http://www.w3.org/2000/svg" viewBox="0 0 25 25"><defs><style>.cls-1{fill:#757575;}</style></defs><path class="cls-1" d="M12.5,18.76c3.53,0,6.9-2,9.76-5.71l.41-.55L22.26,12C19.4,8.22,16,6.24,12.5,6.24S5.59,8.22,2.74,12l-.41.55.41.55C5.6,16.78,9,18.76,12.5,18.76ZM12.5,8c2.78,0,5.5,1.54,7.89,4.46C18,15.42,15.28,17,12.5,17S7,15.42,4.61,12.5C7,9.58,9.72,8,12.5,8Z"/><path class="cls-1" d="M12.46,16.14a3.6,3.6,0,1,0-3.6-3.6A3.6,3.6,0,0,0,12.46,16.14Zm0-5.4a1.8,1.8,0,1,1-1.8,1.8A1.81,1.81,0,0,1,12.46,10.74Z"/></svg>