<svg id="Layer_1" data-name="Layer 1" xmlns="http://www.w3.org/2000/svg" viewBox="0 0 25 25"><defs><style>.cls-1{fill:#757575;}</style></defs><path class="cls-1" d="M18.09,24a.76.76,0,0,1-.76-.76v-1.8l.76-4.4a1.4,1.4,0,0,0-.71-1.55l-5-2.65a.75.75,0,0,1-.4-.67v-5a.4.4,0,0,0-.8,0v8.42a.78.78,0,0,1-.32.62.77.77,0,0,1-.44.14.75.75,0,0,1-.26,0A6.75,6.75,0,0,1,8,14.77a1,1,0,0,0-.7-.28,1.37,1.37,0,0,0-.34,0L11,21a.68.68,0,0,1,.12.4v1.8a.76.76,0,1,1-1.52,0V21.65l-4-6.43a1.37,1.37,0,0,1,.69-2.07,3.14,3.14,0,0,1,1-.18,2.46,2.46,0,0,1,1.73.7l.58.51v-7a1.92,1.92,0,0,1,3.84,0V11.7l4.64,2.44a2.91,2.91,0,0,1,1.49,3.18l-.75,4.24v1.67A.76.76,0,0,1,18.09,24Z"/><path class="cls-1" d="M17.9,14.49l-4.85-2.55V7.15a1.52,1.52,0,0,0-3,0V15a7.94,7.94,0,0,1-1.25-1,2.21,2.21,0,0,0-2.35-.43,1,1,0,0,0-.61.61,1,1,0,0,0,.12.86L10,21.53v1.7a.36.36,0,1,0,.72,0v-1.8a.31.31,0,0,0-.06-.19L6.52,14.61a.27.27,0,0,1,0-.25.22.22,0,0,1,.15-.15,1.5,1.5,0,0,1,1.62.27,6.58,6.58,0,0,0,2,1.42.35.35,0,0,0,.33,0,.38.38,0,0,0,.15-.29V7.15a.8.8,0,1,1,1.6,0v5a.36.36,0,0,0,.19.32l5.05,2.65a1.79,1.79,0,0,1,.92,2l-.76,4.33v1.8a.36.36,0,1,0,.71,0V21.49l.75-4.25A2.53,2.53,0,0,0,17.9,14.49Z"/><path class="cls-1" d="M7.89,11.28a.75.75,0,0,1-.53-.22,5.89,5.89,0,0,1,0-8.33,5.89,5.89,0,0,1,8.32,0,5.9,5.9,0,0,1,0,8.32.77.77,0,0,1-1.3-.53.74.74,0,0,1,.23-.54,4.37,4.37,0,0,0-3.09-7.45A4.31,4.31,0,0,0,8.43,3.81a4.37,4.37,0,0,0,0,6.17.77.77,0,0,1,.22.54.79.79,0,0,1-.22.54A.76.76,0,0,1,7.89,11.28Z"/><path class="cls-1" d="M8.15,10.77a.35.35,0,0,0,0-.5,4.78,4.78,0,0,1,0-6.75,4.78,4.78,0,0,1,6.74,0,4.78,4.78,0,0,1,0,6.75.35.35,0,0,0,0,.5.36.36,0,0,0,.25.11.38.38,0,0,0,.26-.11,5.48,5.48,0,1,0-7.76,0A.36.36,0,0,0,8.15,10.77Z"/></svg>